<svg xmlns="http://www.w3.org/2000/svg" viewBox="0 0 24 24" width="20" height="20" preserveAspectRatio="xMidYMid meet" style="width: 100%; height: 100%; transform: translate3d(0px, 0px, 0px);">
    <defs>
        <clipPath id="__lottie_element_2">
            <rect width="24" height="24" x="0" y="0"></rect>
        </clipPath>
    </defs>
    <g clip-path="url(#__lottie_element_2)">
        <g transform="matrix(1,0,0,1,0,0)" opacity="1" style="display: block;">
            <g opacity="1" transform="matrix(1,0,0,1,14,12.5)">
                <path stroke-linecap="butt" stroke-linejoin="miter" fill-opacity="0" stroke-miterlimit="10" stroke="rgb(0,0,0)" stroke-opacity="1" stroke-width="2" d=" M0,5.5 C0,5.5 0,-5.5 0,-5.5"></path>
            </g>
            <g opacity="1" transform="matrix(1,0,0,1,10,12.5)">
                <path stroke-linecap="butt" stroke-linejoin="miter" fill-opacity="0" stroke-miterlimit="10" stroke="rgb(0,0,0)" stroke-opacity="1" stroke-width="2" d=" M0,5.5 C0,5.5 0,-5.5 0,-5.5"></path>
            </g>
            <g opacity="1" transform="matrix(1,0,0,1,12,12.5)">
                <path stroke-linecap="butt" stroke-linejoin="miter" fill-opacity="0" stroke-miterlimit="10" stroke="rgb(0,0,0)" stroke-opacity="1" stroke-width="2" d=" M-6,-8.5 C-6,-8.5 -6,0.12099999934434891 -6,0.12099999934434891 C-6,0.12099999934434891 -6,7.5 -6,7.5 C-6,8.100000381469727 -5.599999904632568,8.5 -5,8.5 C-5,8.5 5,8.5 5,8.5 C5.599999904632568,8.5 6,8.100000381469727 6,7.5 C6,7.5 6,-0.125 6,-0.125 C6,-0.125 6,-8.5 6,-8.5"></path>
            </g>
        </g>
        <g transform="matrix(1,0,0,1,0,0)" opacity="1" style="display: block;">
            <g opacity="1" transform="matrix(1,0,0,1,12,3.5)">
                <path fill="rgb(0,0,0)" fill-opacity="1" d=" M5,1.5 C5,1.5 2,-1.5 2,-1.5 C2,-1.5 -2,-1.5 -2,-1.5 C-2,-1.5 -5,1.5 -5,1.5 C-5,1.5 5,1.5 5,1.5z"></path>
            </g>
            <g opacity="1" transform="matrix(1,0,0,1,12,4)">
                <path stroke-linecap="butt" stroke-linejoin="miter" fill-opacity="0" stroke-miterlimit="10" stroke="rgb(0,0,0)" stroke-opacity="1" stroke-width="2" d=" M-8,0 C-8,0 8,0 8,0"></path>
            </g>
        </g>
    </g>
</svg>